<svg width="64" height="64" viewBox="0 0 64 64" fill="none" xmlns="http://www.w3.org/2000/svg">
<circle cx="32" cy="32" r="32" fill="#313131"/>
<g clip-path="url(#clip0_1_8)">
<path d="M46.8276 12.2667H36.5973C33.8977 12.2667 31.5228 14.1151 30.853 16.7354L27.8082 28.618C27.1587 31.0555 24.9462 32.782 22.4089 32.782H9.31665C8.36264 32.782 7.57101 33.5742 7.7537 34.4882C8.54532 38.4288 12.0366 41.4147 16.218 41.4147H24.5402C28.5187 41.4147 31.8882 38.7132 32.8625 35.0367C33.1873 33.7976 34.1819 32.782 35.4606 32.782H44.4324C45.4473 32.782 46.3404 32.0914 46.584 31.1164L50.2783 16.7354C50.8669 14.4604 49.1619 12.2667 46.8276 12.2667ZM45.7315 18.5635C45.5691 19.2134 44.9805 19.6603 44.3106 19.6603H34.7705C34.2022 19.6603 33.7759 19.1119 33.9383 18.5635C34.1007 17.9135 34.6893 17.4666 35.3592 17.4666H44.8993C45.4676 17.4666 45.8736 18.015 45.7315 18.5635Z" fill="white"/>
<path d="M39.1143 49.6006H36.7394C35.3186 49.6006 34.1413 48.4428 34.1413 47.0006V43.9944C34.1413 42.5725 35.2983 41.3944 36.7394 41.3944H31.401H26.0626C27.4835 41.3944 28.6608 42.5522 28.6608 43.9944V47.0006C28.6608 48.4224 27.5038 49.6006 26.0626 49.6006H23.6877C22.7337 49.6006 21.9624 50.3724 21.9624 51.3271V51.713H31.401H40.8397V51.3271C40.8397 50.3927 40.0683 49.6006 39.1143 49.6006Z" fill="white"/>
</g>
<defs>
<clipPath id="clip0_1_8">
<rect width="42.6667" height="39.4667" fill="white" transform="translate(7.7334 12.2667)"/>
</clipPath>
</defs>
</svg>
